<?xml version="1.0" standalone="no"?>
<!DOCTYPE svg PUBLIC "-//W3C//DTD SVG 20010904//EN"
 "http://www.w3.org/TR/2001/REC-SVG-20010904/DTD/svg10.dtd">
<svg version="1.0" xmlns="http://www.w3.org/2000/svg"
 width="700.000000pt" height="700.000000pt" viewBox="0 0 700.000000 700.000000"
 preserveAspectRatio="xMidYMid meet">
<metadata>
Created by potrace 1.11, written by Peter Selinger 2001-2013
</metadata>
<g transform="translate(0.000000,700.000000) scale(0.100000,-0.100000)"
fill="#000000" stroke="none">
<path d="M17 6532 c-16 -3 -17 -202 -15 -3035 l3 -3031 3495 0 3495 0 3 3035
2 3034 -3483 0 c-1916 0 -3491 -1 -3500 -3z m6514 -476 c1 -14 1 -5098 0
-5111 -1 -8 -926 -11 -3033 -10 l-3031 0 1 2555 c0 1405 1 2560 1 2566 1 15
6061 15 6062 0z"/>
<path d="M1638 4907 l-147 -150 510 -508 c280 -279 509 -511 509 -516 0 -5
-229 -237 -509 -517 l-510 -507 150 -150 c83 -83 155 -149 160 -147 6 2 307
300 669 663 l660 660 -663 662 c-364 365 -666 662 -672 662 -5 -1 -76 -69
-157 -152z"/>
<path d="M3034 2570 c-1 -226 0 -231 20 -235 12 -2 432 -3 934 -3 l912 1 0
234 0 233 -933 0 -933 0 0 -230z"/>
</g>
</svg>
